<mxfile host="app.diagrams.net" agent="Mozilla/5.0 (Windows NT 10.0; Win64; x64) AppleWebKit/537.36 (KHTML, like Gecko) Chrome/131.0.0.0 Safari/537.36 Edg/131.0.0.0" version="25.0.3">
  <diagram name="Page-1" id="HjNq3vbdHEHxPLuXQIKu">
    <mxGraphModel dx="1047" dy="513" grid="1" gridSize="10" guides="1" tooltips="1" connect="1" arrows="1" fold="1" page="1" pageScale="1" pageWidth="850" pageHeight="1100" math="0" shadow="0">
      <root>
        <mxCell id="0" />
        <mxCell id="1" parent="0" />
        <mxCell id="XMYpjK68bOXcYuI27znc-1" value="" style="shape=image;verticalLabelPosition=bottom;labelBackgroundColor=default;verticalAlign=top;aspect=fixed;imageAspect=0;image=data:image/png,iVBORw0KGgoAAAANSUhEUgAAAWoAAABRCAYAAAD7Euw5AAAAAXNSR0IArs4c6QAAAARnQU1BAACxjwv8YQUAAAAJcEhZcwAADsMAAA7DAcdvqGQAABKESURBVHhe7Z2/T+Q8E8fnfettaFZP8VTbcA3V1ltxJdJWJ/EPbIVES4koaZGo+AeQrlqJEipqKpqj2eoqGprt33dm4iTODzu2Y4cE5iOtDtbEmXjGzthxvveff/75538QwuoK7i+WAC/XcHr5zF9tbh5gvdjB9uQc7vib6bC6uoeLgyc4Of9cy6kNjz/KNvWCfXIIb9enUB6+gZuHNSzUbwAu/lnB1f0FHDydQEhz9LoGA+yfwze4Pr2EeLUKwjT4r/rXnx8HMNvvAQ5+qC82cDTfA34jfAo4uJ7RjfNWG6RpwF0DjsxwcpJ9trsFrG82qnw6PF+ewvZ9CWdXK/WNIHwfwgdq4v0N3uZHOEQjmyOApyd4hzn8y32JBokHeHhQn3xw2Nzgz1eq7B6uNpgFUvn9FR7Bf4AZoHZc8X2Wqd1jR6XsKi/naqnOh5vMjpy277ypXUNuS+f5TNeQ1aePk3wt+EV+TWtMfWfLi/JY10F18wuW8AK3lSz2BxzM9vDxR/2K/PnwuZXq16GuzXLt3ddgiAmmVlY/B3L3+wVg+avxfWGna1sJwsToN1DDX3h8m8MR9g8ap1+1afLm5gKW71uVyV3Dy3zNgyyzWPK0erubwXJ9AE8nW9jNDnFKS511DfOX6/I4HH4utA5IAwAvUWD59cseFsdX2INfcUK/YDtyNkc4Wuxeey3BrK5+Adzm2WhmC2d01vN1X0MblDHS3293APviWPw4rj3Q+fdvj7VlgTt4pTa+UIPe6grOljM0063OxfoYPq4zO4pM3HLtXddgi4nV1ZlWRp+W5ZnnR3jbV88tCN+B4IF69e+c/31+fIP50Q0cQTkoXj5v4IjWqotB5hkun3YwO/yZ/bp/gd+qaP/yu+yQlBXOdvBUZIV43O0L7Bcqayfw2GtVL517PzvAsjv4TYN20YPp/Ht4yU8SyPPlubaM8Iw3pT3MeKnHcj7LNaRjBeSO97/VYZq4O8dBbwuwpoyT16/d151323Kt++4VR1/2Q2hbm2NC3b5V/Tae4e87wDybsmncwbl2QxCEr0bPjBqhLGeOGRVnaX+AZ9arf2GOWRcPDvmH5sMu7D+wFjOVrPH5Ek5V5sWDdt7RMb1f7J60QTYQejinXcMFZqM51vN1XEN8aIlD/ViDlosejj/gmgay7Ttm19nykTd/PornD0Ft3RETvAZNWbsqM9lISzfZzVIQvg+9Buo9L35iZnSqZ2n5iEG7C/JprPqcXqoyC5ghV7ohPbRUP1rRpsU0FXed3pvZwI3a1ZLbT0stBbbzhV5DMOoGWQdvNMeU7d6qnRJ35zhYYxbbus7bAT88Vjeg4LZuj4l8jOfsn7/fwvvyonWw/oF3pCzuBOH70D+jbkN1ZO/dBWr987jooCu4Ol5Ul0eMZFPpxfE9HM/LpZW+FMsJan23xHA+yzXkFFP3zU0lSyc4Y9SXA5wwLQkQs3JjDsLryd4Zv7qGYjZjb+vWa/CKCcONB2tsX+KRh4nC1yZ4oKbMxsTNhrLs7GFRMc21TGdzrla01phlU9kx2cMn5/24NEjO0K7GQzUT9OAvs40HzIWylzu8WotdK/svDuBNz6iJ1vPZrgHb5ZZ2Lqiy4w/Y1up8vrzNHj7ysfhxHHxoDbmRKdPSEGbQxTXgZ40Dq+te5PK4Czh8q+2LtrR1+zXYYqL0Q/Yx+H31Ew5nu8pDa0H4DoS/8DJKKLOinQr6Cx8pGfp8NmiwaxlQkzH8tad4kUYQpkCapY9PYnOzjvMQ0ZGhz2cnz9bPcGaivkrI0NdOe7RpNlDdJy4I34MvkVFTpsUbCGjr3gCvGA99Pi/o5RPa5ZHIrs+5dsrej+B1gtIEghCDL7b0IQiC8PX4UksfgiAIXxEZqAVBEEaODNRjhdaaNUGqdKg9yJHOpQtmjXtfM113U/jJC28fxW1rITYRYiIRHWvUZLiuZYzstu5CQdG3U2Vb0Ip3RDxsMRNap+24nnbWdaVpQKi9gk+iR3HaVfk48sNBGrA/X9/b7ge2MVTjuu4jp76Spq2HIzTmp1KGpX1iIiFOGfWu0DPewm6xrsh0DklVfS2zJUi3QiO0Tttx/ezEQGroShPa69fX2Uszfa89QwkaTXLgsNPlh3CNa5OPuvrKtNs6NOanUkaMVffcc+mDZDPVq8qU5SXRJTaQ61aU72rzm4PVV5UpY3Gsj7DUyRkT1qU7kWYIdH1dx3XbaaFVV7qGeuOwfBOxoz3ZL2V5fk3GZQr6e6tmeO18IdN/Vx+F4ugHs8a1BRcf4fmKvoIY25rbEtt4pdqFP3q/Mrc1xSP5Uq+bq7b0zfK7uH1l6mW9YyIxngN1Jmn59ogBqjQtCrVLJIYusREWBXoDOjWDgcevfdcFkHyw1LkpBkP1AgmW5f/NmO24vnZSGzZ1pVtgNbvsP2mwtiee/2E9hxelK02ffMkk91NFbCrHoBn+E6s16nSPCVc/aAJTrrj5SOsriLWtgTTDc+1vbE+0J9eK6WrrwfTZA2N+KmV9YyI1TgN1qflAgvj5dC+7GyXRJbaBd0XO7vh/mMLBo/gfZYhAXWJTnXfnGPx0c8Xs8niB09raCxctxxVY7TRh1pVu8PwX3vEfu/Y3ZmMsCNWconeyN2iGI2adbhcCfRRKpx9sglZt2H3U3le6KbW/q+3Z2da03q3a0k+fPV5fKZhwWb+YSI/nGvU1vB1eFNOlFLrEVmZLuLig7I5swUGT63oHl3HNSEedLDA0X3LGWolpw3G2sm47zbrSDbjO/F9Te2b1OQ38PuSBrj6clYwRRz/4aVzbfWTqK8F0tPWg+uwBMT+Vsn4xkR7PpY8sW8NbTZb9JtIlboWn+pgVXGPjqq+yqUwPkX6HOmlZ4fBtW11OsBzXz06TvGeT1c9DnDCr4DO0p099rlAGb9XpHgsefvDTuHZt01pfCaJHWwf3TQOBMT+Vsn4xkR7PgVpNpYu7eBaM6XSJNfi4GSzPtAdaFVsIzwckXXVusnXpp8u7quCR5Tg3O004TrnU2hotxdjbM5sqL9bx94aadbq78PRRKM5+8FhuYlynxT5+txPW1va+GbOvfIWyfjGRngj7qLO/of/MtbmvFxuidc9i7XvEbV9w9bjmMcreho02DHXiYEhLCDSVzavKBInojkzriTZbuuy0wOeltTPtrq9sKcltUL92tCfvDdUKszJoHMNQ270eFcJOP4q98D+wbTNZ08efen07eHmZw5L3TP8x11n4I8RHoTj4gZYWeCqstXcXbT6y9pWmfxguz9qMHtzmzcH+UnvQq77T2/qO49H+noKtb0bsK8xXKFOExERiIogykcPHosn8FcgCaThd6e9N2EtZU/GR9M0QwmIiLZ5LH03Gpcn8FcAp64C60t8ZylbDNK6n4SPpm/6Ex0RagjPqbBkAf5js67Ajh6bXCXWlBco2e2pcj9RH0jdDiRATiRA9akEQhJHTe+lDEARBSIsM1IIgCCNHBuqxQuufg+gW07rcQ7Rz0cOY/C265Hule0HX3XN/ubeP4ra1EJsIMZGIielRE8qmaA9Kqvsq3a/PdlxonQrexyl61P2x+4FtFD1qD0JjfiplWNonJhLilFGPRY+aB6yHI/iI+Mpylz6tCdtxoXVmYCCJHnUUuvwgetR+hMb8VMoI0aOuTIXprqa+q3xvA7MR2gp1cg6P6psmlLG41odgVmTTrr3HunQn0gyBrq/rOBfNWyOiRx0HRz+IHnXlr8wExvxUynrHRGI8B2pNY3doPWps1PPYmQgLsrTr04oetehRm3DzkdZXENGjHndZ35hIjdNAPSo9aivxNHY5ERI9avWj6FGXiB61T8wXjLysX0ykx3ON+pP1qFPQoU8retQt5IGuPpyVjJEk2sOiR+0T81Mp6xcT6fFc+siyNbzVZNmvNkXw07xt10+OPJx046BPS8sKokddInrUokftE/NTKesXE+nxHKjVVLq4i2fBOIgetROeD0jYFos+7Ub0qE2EaSQTnj4KxdkPokftRGDMT6WsX0ykZ0J61M1jmMqeVGVvw0Yb1XoLO3AwFD1q0aNupc1H1r7S9A/D5aJHPZ4yRUhMJEb0qEdHFkiiRz0MYS9lTcVH0jdDCIuJtHgufTQRzdvY4JRV9KgHgbJV0aMWdMJjIi2iRz1WaHotetQJoWxT9KgFnQgxkQjRoxYEQRg5vZc+BEEQhLTIQC0IgjByZKAeK7T+OYhuMa3LPUQ7Fz2Myd+iS75Xuhd03T33l3v7KG5bC7GJEBOJmJYeNe9vXILaAommlHtPw6nuq/S5vqJ96g9t+trJx4setTthfmAbRY/aA1tfCS0jTO0ydJ1Y2icmEuKUUZf6BVvWb/2cRAkb+Iw6hrJlu4PFmuQhVXEgXfq0RmjwbNXG7msnHS961M708IPoUfth6yuhZWb/DV8nIXrUlakwBrq3HvUzXJ5qG/dZynEGVd0Uuou61odgVmTTrr3HunQn0gyBro/PY9TGdrHTguhRe9DfD6JHXfkrMx19JaiMbDD5b+A69fgVPWo1xaje1Vz1qBPAgizt+rRWPWp0cHRtbIWb1jHCAjPfXY86gh9Y/8FPe9jNR1pfQUSPullGcqxG/w1cZ+X+HRATqXEaqMeoR81vXe3rYjNqallZq3IA77ScMdb1abv0qB1ot9OE6FGnwuwH0aP2oqWvFHiWOTX5QHVWjxM9amwk0n/tp0dNUz3ObmNktR36tEY9agf87RQ96hR0+UH0qB1JrAHdYMA668eJHjWDnYYbSvs4DmbU6TKJXmxk9V0wDvq0tKzQ0KN2IMxO0aOOjYsfRI/agQE0oCsMXGf9ONGjVgEUokdddjrtIVEFzwckbItFn3Zj0KPuoNtOE6JHHRM3P4getROWvhJaZm2XgeusHid61OrY2vdI977gFlsIWqMrsnH1Nw0bbVRtKezAwdCkR31yctuwn0FbTk7/Othpgc9La2faXV/ZUkJZgT742NszG7DKwqzsK+hRN6+b8fEDLS3wVFhr7y7afGTtKwY7ufw761Gb/Zf5aOg6FSExkRjRox4dWSCJHvUwhL2UNRUfSd8MISwm0uK59NFENG9jg1NW0aMeBMpWRY9a0AmPibSIHvVYoem1Wn6Qtk0BZZuiRy3oRIiJRIgetSAIwsjpvfQhCIIgpEUGakEQhJEjA/VYofXPQXSLaV3uIdq56GFM/hbdEHulw6Hr7rm/3NtHcdtaiE2EmEjEpPSoi4ckCn2Pczi1fZe++3t5z+USZtqDm952cp2iR+1FgB/YRtGj9qCrr5iuz3ZcijLC1tbmsl4xkRCnjLrUL9iyfutnJUp357kd+Ll+gfln6lEzGCxnS3jf7dTvGf3szOoUPWofwvwgetR+WPsKJRORdaVDy2y2WMsQ0aOuTIXpbqi+q3zvgVKPq0J3So/6MCuyad7eY12F8xHK0PRrXl2dsS7x71f1RRutdloQPWpv+vhB9Kgrf2XG1leorti60qFlNlusZSWiR62mJtW7YaAeNSmC6dqyIbAgi0HX1qJHzVeBwZIlVR3ZkaedblrHCAvMfHc9aqSvH1j/wU972M1HWl9BvrIedQpd6dAyqy3WMo2AmEiN00A9Hj1qLbvAdH33VG90NbWsrFU5gJ2dM8a6Pq1Fj3rzq33qm9FlpwnRo/alvx9Ej9oLU1/pouW4gohlzm60InrU2Lik/xqqR42D0Glpy8dxdWkiiA592lY9aryD218zDbVT9Ki9iOQH0aN2ZEBd6dCyWKEuetRMu36yXxv7ZnItOOjT0rJCXY+ap5EUKHkHooFR/d7slz52ih61D7H8IHrUDiTQgE5RFktBWvSoVQCF6FFX2cAvzC6qAYiBTR3WtW62xaJPSxlbix51ZTcBfbLFeLjGn5szyTY7TYgetQ9x/CB61E509RUTluNSlPVt6wzRo1bH1r5HuvcFN4+p74st7G3YaKNab2EHDoa8rqmdI9uXS3fymmwk/W0hzuNipwU+L625admCsqWkboO9PXlvqFaYlX0FPeoaIX6gpQWeQmvt3UWbj6x9pWkLw+VfQY/acH3FPmXTcUTsMrMtJ6ePxrLKvumQmEiM6FGPjizQRI96GLoHuzam4iPpmyGExURaPJc+mojmbWxwyip61INA2aroUQs64TGRFtGjHiuVabwQH8o2RY9a0IkQE4kQPWpBEISR03vpQxAEQUiLDNSCIAgjRwbqsULrn4PoFtO63EO0c9HDmPwtuhh7pdNB191zf7m3j+K2tRCbCDGRiEnpURfwPseq9nA4tX2XztdnOC63TX1d4GMr1yF61L1w8APbKHrUHtj6ytBlhK09w8p6xUQyAP4Pco7qAyEwadoAAAAASUVORK5CYII=;" vertex="1" parent="1">
          <mxGeometry x="200" y="120" width="362" height="81" as="geometry" />
        </mxCell>
      </root>
    </mxGraphModel>
  </diagram>
</mxfile>
